# Made in Blockbench 4.11.2
mtllib rmi.mtl

o cube
v 1.5312499999999987 4.375 0
v 1.5312499999999987 4.375 0
v 1.5312499999999987 0 0
v 1.5312499999999987 0 0
v -1.531250000000001 4.375 0
v -1.531250000000001 4.375 0
v -1.531250000000001 0 0
v -1.531250000000001 0 0
vt 0.08984375 1
vt 0.28125 1
vt 0.28125 0.453125
vt 0.08984375 0.453125
vt 0.46484375 1
vt 0.65625 1
vt 0.65625 0.453125
vt 0.46484375 0.453125
vn 0 0 -1
vn 0 0 1
usemtl m_5a54e714-c4d8-3afa-89ef-28af44af6f95
f 4/4/1 7/3/1 5/2/1 2/1/1
f 8/8/2 3/7/2 1/6/2 6/5/2
o cube
v 2.5477159979556614 4.375 -1.0164659979556625
v 2.5477159979556614 4.375 -1.0164659979556625
v 2.5477159979556614 0 -1.0164659979556625
v 2.5477159979556614 0 -1.0164659979556625
v 1.5312499999999987 4.375 1.5700924586837752e-16
v 1.5312499999999987 4.375 1.5700924586837752e-16
v 1.5312499999999987 0 1.5700924586837752e-16
v 1.5312499999999987 0 1.5700924586837752e-16
vt 0 1
vt 0.08984375 1
vt 0.08984375 0.453125
vt 0 0.453125
vt 0.46484375 1
vt 0.375 1
vt 0.375 0.453125
vt 0.46484375 0.453125
vn -0.7071067811865476 0 -0.7071067811865475
vn 0.7071067811865476 0 0.7071067811865475
usemtl m_5a54e714-c4d8-3afa-89ef-28af44af6f95
f 12/12/3 15/11/3 13/10/3 10/9/3
f 16/16/4 11/15/4 9/14/4 14/13/4
o cube
v -1.5312500000000013 4.375 -1.5700924586837752e-16
v -1.5312500000000013 4.375 -1.5700924586837752e-16
v -1.5312500000000013 0 -1.5700924586837752e-16
v -1.5312500000000013 0 -1.5700924586837752e-16
v -2.5477159979556627 4.375 -1.0164659979556616
v -2.5477159979556627 4.375 -1.0164659979556616
v -2.5477159979556627 0 -1.0164659979556616
v -2.5477159979556627 0 -1.0164659979556616
vt 0.28125 1
vt 0.37109375 1
vt 0.37109375 0.453125
vt 0.28125 0.453125
vt 0.7421875 1
vt 0.65234375 1
vt 0.65234375 0.453125
vt 0.7421875 0.453125
vn 0.7071067811865476 0 -0.7071067811865475
vn -0.7071067811865476 0 0.7071067811865475
usemtl m_5a54e714-c4d8-3afa-89ef-28af44af6f95
f 20/20/5 23/19/5 21/18/5 18/17/5
f 24/24/6 19/23/6 17/22/6 22/21/6
o cube
v -1.5312500000000013 4.375 0.12499999999999985
v -1.5312500000000013 4.375 0.12499999999999985
v -1.5312500000000013 0 0.12499999999999985
v -1.5312500000000013 0 0.12499999999999985
v -2.5477159979556627 4.375 -0.8914659979556616
v -2.5477159979556627 4.375 -0.8914659979556616
v -2.5477159979556627 0 -0.8914659979556616
v -2.5477159979556627 0 -0.8914659979556616
vt 0.6484375 1
vt 0.73828125 1
vt 0.73828125 0.453125
vt 0.6484375 0.453125
vt 0.7421875 1
vt 0.65234375 1
vt 0.65234375 0.453125
vt 0.7421875 0.453125
vn 0.7071067811865476 0 -0.7071067811865475
vn -0.7071067811865476 0 0.7071067811865475
usemtl m_5a54e714-c4d8-3afa-89ef-28af44af6f95
f 28/28/7 31/27/7 29/26/7 26/25/7
f 32/32/8 27/31/8 25/30/8 30/29/8
o cube
v 2.5477159979556614 4.375 -0.8914659979556625
v 2.5477159979556614 4.375 -0.8914659979556625
v 2.5477159979556614 0 -0.8914659979556625
v 2.5477159979556614 0 -0.8914659979556625
v 1.5312499999999987 4.375 0.12500000000000017
v 1.5312499999999987 4.375 0.12500000000000017
v 1.5312499999999987 0 0.12500000000000017
v 1.5312499999999987 0 0.12500000000000017
vt 0.37109375 1
vt 0.4609375 1
vt 0.4609375 0.453125
vt 0.37109375 0.453125
vt 0.4609375 1
vt 0.37109375 1
vt 0.37109375 0.453125
vt 0.4609375 0.453125
vn -0.7071067811865476 0 -0.7071067811865475
vn 0.7071067811865476 0 0.7071067811865475
usemtl m_5a54e714-c4d8-3afa-89ef-28af44af6f95
f 36/36/9 39/35/9 37/34/9 34/33/9
f 40/40/10 35/39/10 33/38/10 38/37/10
o cube
v 1.5312499999999987 4.375 0.125
v 1.5312499999999987 4.375 0.125
v 1.5312499999999987 0 0.125
v 1.5312499999999987 0 0.125
v -1.531250000000001 4.375 0.125
v -1.531250000000001 4.375 0.125
v -1.531250000000001 0 0.125
v -1.531250000000001 0 0.125
vt 0.4609375 1
vt 0.65234375 1
vt 0.65234375 0.453125
vt 0.4609375 0.453125
vt 0.4609375 1
vt 0.65234375 1
vt 0.65234375 0.453125
vt 0.4609375 0.453125
vn 0 0 -1
vn 0 0 1
usemtl m_5a54e714-c4d8-3afa-89ef-28af44af6f95
f 44/44/11 47/43/11 45/42/11 42/41/11
f 48/48/12 43/47/12 41/46/12 46/45/12
o cube
v 1.5312499999999987 4.375 0.25
v 1.5312499999999987 4.375 0.25
v 1.5312499999999987 0 0.25
v 1.5312499999999987 0 0.25
v -1.531250000000001 4.375 0.25
v -1.531250000000001 4.375 0.25
v -1.531250000000001 0 0.25
v -1.531250000000001 0 0.25
vt 0.4609375 1
vt 0.65234375 1
vt 0.65234375 0.453125
vt 0.4609375 0.453125
vt 0.4609375 1
vt 0.65234375 1
vt 0.65234375 0.453125
vt 0.4609375 0.453125
vn 0 0 -1
vn 0 0 1
usemtl m_5a54e714-c4d8-3afa-89ef-28af44af6f95
f 52/52/13 55/51/13 53/50/13 50/49/13
f 56/56/14 51/55/14 49/54/14 54/53/14
o cube
v 2.5477159979556614 4.375 -0.7664659979556625
v 2.5477159979556614 4.375 -0.7664659979556625
v 2.5477159979556614 0 -0.7664659979556625
v 2.5477159979556614 0 -0.7664659979556625
v 1.5312499999999987 4.375 0.25000000000000017
v 1.5312499999999987 4.375 0.25000000000000017
v 1.5312499999999987 0 0.25000000000000017
v 1.5312499999999987 0 0.25000000000000017
vt 0.37109375 1
vt 0.4609375 1
vt 0.4609375 0.453125
vt 0.37109375 0.453125
vt 0.4609375 1
vt 0.37109375 1
vt 0.37109375 0.453125
vt 0.4609375 0.453125
vn -0.7071067811865476 0 -0.7071067811865475
vn 0.7071067811865476 0 0.7071067811865475
usemtl m_5a54e714-c4d8-3afa-89ef-28af44af6f95
f 60/60/15 63/59/15 61/58/15 58/57/15
f 64/64/16 59/63/16 57/62/16 62/61/16
o cube
v -1.5312500000000013 4.375 0.24999999999999983
v -1.5312500000000013 4.375 0.24999999999999983
v -1.5312500000000013 0 0.24999999999999983
v -1.5312500000000013 0 0.24999999999999983
v -2.5477159979556627 4.375 -0.7664659979556616
v -2.5477159979556627 4.375 -0.7664659979556616
v -2.5477159979556627 0 -0.7664659979556616
v -2.5477159979556627 0 -0.7664659979556616
vt 0.65234375 1
vt 0.7421875 1
vt 0.7421875 0.453125
vt 0.65234375 0.453125
vt 0.7421875 1
vt 0.65234375 1
vt 0.65234375 0.453125
vt 0.7421875 0.453125
vn 0.7071067811865476 0 -0.7071067811865475
vn -0.7071067811865476 0 0.7071067811865475
usemtl m_5a54e714-c4d8-3afa-89ef-28af44af6f95
f 68/68/17 71/67/17 69/66/17 66/65/17
f 72/72/18 67/71/18 65/70/18 70/69/18
o cube
v -2.7755575615628914e-17 2.629441738241592 -1.875
v -2.7755575615628914e-17 2.629441738241592 -2.125
v 0.4419417382415922 2.1875 -1.875
v 0.4419417382415922 2.1875 -2.125
v -0.4419417382415922 2.1875 -2.125
v -0.4419417382415922 2.1875 -1.875
v 2.7755575615628914e-17 1.7455582617584078 -2.125
v 2.7755575615628914e-17 1.7455582617584078 -1.875
vt 0.31640625 0.453125
vt 0.35546875 0.453125
vt 0.35546875 0.375
vt 0.31640625 0.375
vt 0.31640625 0.3671875
vt 0.35546875 0.3671875
vt 0.35546875 0.3515625
vt 0.31640625 0.3515625
vt 0.31640625 0.453125
vt 0.35546875 0.453125
vt 0.35546875 0.375
vt 0.31640625 0.375
vt 0.31640625 0.3671875
vt 0.35546875 0.3671875
vt 0.35546875 0.3515625
vt 0.31640625 0.3515625
vt 0.31640625 0.3671875
vt 0.35546875 0.3671875
vt 0.35546875 0.3515625
vt 0.31640625 0.3515625
vt 0.31640625 0.3671875
vt 0.35546875 0.3671875
vt 0.35546875 0.3515625
vt 0.31640625 0.3515625
vn 0 0 -1
vn 0.7071067811865475 0.7071067811865476 0
vn 0 0 1
vn -0.7071067811865475 -0.7071067811865476 0
vn -0.7071067811865476 0.7071067811865475 0
vn 0.7071067811865476 -0.7071067811865475 0
usemtl m_5a54e714-c4d8-3afa-89ef-28af44af6f95
f 76/76/19 79/75/19 77/74/19 74/73/19
f 75/80/20 76/79/20 74/78/20 73/77/20
f 80/84/21 75/83/21 73/82/21 78/81/21
f 79/88/22 80/87/22 78/86/22 77/85/22
f 78/92/23 73/91/23 74/90/23 77/89/23
f 79/96/24 76/95/24 75/94/24 80/93/24
o cube
v 0.125 4.5 0.3125
v 0.125 4.5 -0.25
v 0.125 4.25 0.3125
v 0.125 4.25 -0.25
v -0.125 4.5 -0.25
v -0.125 4.5 0.3125
v -0.125 4.25 -0.25
v -0.125 4.25 0.3125
vt 0.359375 0.453125
vt 0.375 0.453125
vt 0.375 0.421875
vt 0.359375 0.421875
vt 0.31640625 0.3671875
vt 0.33984375 0.3671875
vt 0.33984375 0.3515625
vt 0.31640625 0.3515625
vt 0.31640625 0.3671875
vt 0.33203125 0.3671875
vt 0.33203125 0.3515625
vt 0.31640625 0.3515625
vt 0.31640625 0.3671875
vt 0.3359375 0.3671875
vt 0.3359375 0.3515625
vt 0.31640625 0.3515625
vt 0.31640625 0.3671875
vt 0.33203125 0.3671875
vt 0.33203125 0.3515625
vt 0.31640625 0.3515625
vt 0.31640625 0.3671875
vt 0.33203125 0.3671875
vt 0.33203125 0.3515625
vt 0.31640625 0.3515625
vn 0 0 -1
vn 1 0 0
vn 0 0 1
vn -1 0 0
vn 0 1 0
vn 0 -1 0
usemtl m_5a54e714-c4d8-3afa-89ef-28af44af6f95
f 84/100/25 87/99/25 85/98/25 82/97/25
f 83/104/26 84/103/26 82/102/26 81/101/26
f 88/108/27 83/107/27 81/106/27 86/105/27
f 87/112/28 88/111/28 86/110/28 85/109/28
f 86/116/29 81/115/29 82/114/29 85/113/29
f 87/120/30 84/119/30 83/118/30 88/117/30
o cube
v 0 4.4375 -0.25
v 0 4.4375 -2.0625
v 0 -0.0625 -0.25
v 0 -0.0625 -2.0625
v 0 4.4375 -2.0625
v 0 4.4375 -0.25
v 0 -0.0625 -2.0625
v 0 -0.0625 -0.25
vt 0.8828125 1
vt 0.76953125 1
vt 0.76953125 0.4375
vt 0.8828125 0.4375
vt 0.76953125 1
vt 0.8828125 1
vt 0.8828125 0.4375
vt 0.76953125 0.4375
vn 1 0 0
vn -1 0 0
usemtl m_5a54e714-c4d8-3afa-89ef-28af44af6f95
f 91/124/31 92/123/31 90/122/31 89/121/31
f 95/128/32 96/127/32 94/126/32 93/125/32
o cube
v 2.5 2.1875 -0.875
v 2.5 2.1875 -2.25
v 2.5 2.1875 -0.875
v 2.5 2.1875 -2.25
v -2.5 2.1875 -2.25
v -2.5 2.1875 -0.875
v -2.5 2.1875 -2.25
v -2.5 2.1875 -0.875
vt 0 0.28125
vt 0.3125 0.28125
vt 0.3125 0.453125
vt 0 0.453125
vt 0 0.4609375
vt 0.3125 0.4609375
vt 0.3125 0.2890625
vt 0 0.2890625
vn 0 1 0
vn 0 -1 0
usemtl m_5a54e714-c4d8-3afa-89ef-28af44af6f95
f 102/132/33 97/131/33 98/130/33 101/129/33
f 103/136/34 100/135/34 99/134/34 104/133/34
o cube
v -2.7755575615628914e-17 2.629441738241592 0.0625
v -2.7755575615628914e-17 2.629441738241592 -0.9375
v 0.4419417382415922 2.1875 0.0625
v 0.4419417382415922 2.1875 -0.9375
v -0.4419417382415922 2.1875 -0.9375
v -0.4419417382415922 2.1875 0.0625
v 2.7755575615628914e-17 1.7455582617584078 -0.9375
v 2.7755575615628914e-17 1.7455582617584078 0.0625
vt 0.31640625 0.453125
vt 0.35546875 0.453125
vt 0.35546875 0.375
vt 0.31640625 0.375
vt 0.31640625 0.3671875
vt 0.35546875 0.3671875
vt 0.35546875 0.3515625
vt 0.31640625 0.3515625
vt 0.31640625 0.3671875
vt 0.35546875 0.3671875
vt 0.35546875 0.3515625
vt 0.31640625 0.3515625
vt 0.31640625 0.3671875
vt 0.35546875 0.3671875
vt 0.35546875 0.3515625
vt 0.31640625 0.3515625
vt 0.31640625 0.3671875
vt 0.35546875 0.3671875
vt 0.35546875 0.3515625
vt 0.31640625 0.3515625
vn 0 0 -1
vn 0.7071067811865475 0.7071067811865476 0
vn -0.7071067811865475 -0.7071067811865476 0
vn -0.7071067811865476 0.7071067811865475 0
vn 0.7071067811865476 -0.7071067811865475 0
usemtl m_5a54e714-c4d8-3afa-89ef-28af44af6f95
f 108/140/35 111/139/35 109/138/35 106/137/35
f 107/144/36 108/143/36 106/142/36 105/141/36
f 111/148/37 112/147/37 110/146/37 109/145/37
f 110/152/38 105/151/38 106/150/38 109/149/38
f 111/156/39 108/155/39 107/154/39 112/153/39
o cube
v 2.7285533905932735 2.3125 -0.8598349570550446
v 2.5075825214724774 2.3125 -1.0808058261758406
v 2.7285533905932735 2.0625 -0.8598349570550446
v 2.5075825214724774 2.0625 -1.0808058261758406
v 2.3308058261758404 2.3125 -0.9040291308792039
v 2.5517766952966365 2.3125 -0.6830582617584078
v 2.3308058261758404 2.0625 -0.9040291308792039
v 2.5517766952966365 2.0625 -0.6830582617584078
vt 0.359375 0.453125
vt 0.375 0.453125
vt 0.375 0.421875
vt 0.359375 0.421875
vt 0.31640625 0.3671875
vt 0.33203125 0.3671875
vt 0.33203125 0.3515625
vt 0.31640625 0.3515625
vt 0.31640625 0.3671875
vt 0.33203125 0.3671875
vt 0.33203125 0.3515625
vt 0.31640625 0.3515625
vt 0.31640625 0.3671875
vt 0.3359375 0.3671875
vt 0.3359375 0.3515625
vt 0.31640625 0.3515625
vt 0.31640625 0.3671875
vt 0.33203125 0.3671875
vt 0.33203125 0.3515625
vt 0.31640625 0.3515625
vt 0.31640625 0.3671875
vt 0.328125 0.3671875
vt 0.328125 0.3515625
vt 0.31640625 0.3515625
vn -0.7071067811865476 0 -0.7071067811865475
vn 0.7071067811865475 0 -0.7071067811865476
vn 0.7071067811865476 0 0.7071067811865475
vn -0.7071067811865475 0 0.7071067811865476
vn 0 1 0
vn 0 -1 0
usemtl m_5a54e714-c4d8-3afa-89ef-28af44af6f95
f 116/160/40 119/159/40 117/158/40 114/157/40
f 115/164/41 116/163/41 114/162/41 113/161/41
f 120/168/42 115/167/42 113/166/42 118/165/42
f 119/172/43 120/171/43 118/170/43 117/169/43
f 118/176/44 113/175/44 114/174/44 117/173/44
f 119/180/45 116/179/45 115/178/45 120/177/45
o cube
v -2.5747474683058327 2.3125 -0.6830582617584084
v -2.3537765991850366 2.3125 -0.9040291308792046
v -2.5747474683058327 2.0625 -0.6830582617584084
v -2.3537765991850366 2.0625 -0.9040291308792046
v -2.530553294481673 2.3125 -1.0808058261758415
v -2.751524163602469 2.3125 -0.8598349570550454
v -2.530553294481673 2.0625 -1.0808058261758415
v -2.751524163602469 2.0625 -0.8598349570550454
vt 0.359375 0.453125
vt 0.375 0.453125
vt 0.375 0.421875
vt 0.359375 0.421875
vt 0.31640625 0.3671875
vt 0.33203125 0.3671875
vt 0.33203125 0.3515625
vt 0.31640625 0.3515625
vt 0.31640625 0.3671875
vt 0.33203125 0.3671875
vt 0.33203125 0.3515625
vt 0.31640625 0.3515625
vt 0.31640625 0.3671875
vt 0.33203125 0.3671875
vt 0.33203125 0.3515625
vt 0.31640625 0.3515625
vt 0.31640625 0.3671875
vt 0.33203125 0.3671875
vt 0.33203125 0.3515625
vt 0.31640625 0.3515625
vt 0.31640625 0.3671875
vt 0.33203125 0.3671875
vt 0.33203125 0.3515625
vt 0.31640625 0.3515625
vn 0.7071067811865476 0 -0.7071067811865475
vn 0.7071067811865475 0 0.7071067811865476
vn -0.7071067811865476 0 0.7071067811865475
vn -0.7071067811865475 0 -0.7071067811865476
vn 0 1 0
vn 0 -1 0
usemtl m_5a54e714-c4d8-3afa-89ef-28af44af6f95
f 124/184/46 127/183/46 125/182/46 122/181/46
f 123/188/47 124/187/47 122/186/47 121/185/47
f 128/192/48 123/191/48 121/190/48 126/189/48
f 127/196/49 128/195/49 126/194/49 125/193/49
f 126/200/50 121/199/50 122/198/50 125/197/50
f 127/204/51 124/203/51 123/202/51 128/201/51
o cube
v 0.125 0.125 0.3125
v 0.125 0.125 -0.25
v 0.125 -0.125 0.3125
v 0.125 -0.125 -0.25
v -0.125 0.125 -0.25
v -0.125 0.125 0.3125
v -0.125 -0.125 -0.25
v -0.125 -0.125 0.3125
vt 0.359375 0.453125
vt 0.375 0.453125
vt 0.375 0.421875
vt 0.359375 0.421875
vt 0.31640625 0.3671875
vt 0.33984375 0.3671875
vt 0.33984375 0.3515625
vt 0.31640625 0.3515625
vt 0.31640625 0.3671875
vt 0.33203125 0.3671875
vt 0.33203125 0.3515625
vt 0.31640625 0.3515625
vt 0.31640625 0.3671875
vt 0.3359375 0.3671875
vt 0.3359375 0.3515625
vt 0.31640625 0.3515625
vt 0.31640625 0.3671875
vt 0.33203125 0.3671875
vt 0.33203125 0.3515625
vt 0.31640625 0.3515625
vt 0.31640625 0.3671875
vt 0.33203125 0.3671875
vt 0.33203125 0.3515625
vt 0.31640625 0.3515625
vn 0 0 -1
vn 1 0 0
vn 0 0 1
vn -1 0 0
vn 0 1 0
vn 0 -1 0
usemtl m_5a54e714-c4d8-3afa-89ef-28af44af6f95
f 132/208/52 135/207/52 133/206/52 130/205/52
f 131/212/53 132/211/53 130/210/53 129/209/53
f 136/216/54 131/215/54 129/214/54 134/213/54
f 135/220/55 136/219/55 134/218/55 133/217/55
f 134/224/56 129/223/56 130/222/56 133/221/56
f 135/228/57 132/227/57 131/226/57 136/225/57
o cube
v 0.3125 2.5 4.25
v 0.3125 2.5 0.25
v 0.3125 1.875 4.25
v 0.3125 1.875 0.25
v -0.3125 2.5 0.25
v -0.3125 2.5 4.25
v -0.3125 1.875 0.25
v -0.3125 1.875 4.25
vt 0.31640625 0.3671875
vt 0.35546875 0.3671875
vt 0.35546875 0.3515625
vt 0.31640625 0.3515625
vt 0.37890625 0.8046875
vt 0.41796875 0.8046875
vt 0.41796875 0.7265625
vt 0.37890625 0.7265625
vt 0.31640625 0.3671875
vt 0.35546875 0.3671875
vt 0.35546875 0.3515625
vt 0.31640625 0.3515625
vt 0.31640625 0.3671875
vt 0.35546875 0.3671875
vt 0.35546875 0.3515625
vt 0.31640625 0.3515625
vt 0.31640625 0.3671875
vt 0.35546875 0.3671875
vt 0.35546875 0.3515625
vt 0.31640625 0.3515625
vn 1 0 0
vn 0 0 1
vn -1 0 0
vn 0 1 0
vn 0 -1 0
usemtl m_5a54e714-c4d8-3afa-89ef-28af44af6f95
f 139/232/58 140/231/58 138/230/58 137/229/58
f 144/236/59 139/235/59 137/234/59 142/233/59
f 143/240/60 144/239/60 142/238/60 141/237/60
f 142/244/61 137/243/61 138/242/61 141/241/61
f 143/248/62 140/247/62 139/246/62 144/245/62